<mxfile host="app.diagrams.net" modified="2024-04-07T20:19:06.320Z" agent="Mozilla/5.0 (Windows NT 10.0; Win64; x64; rv:125.0) Gecko/20100101 Firefox/125.0" version="24.0.2" etag="aoFtlDM5s5hZim9BAsP1" type="github">
  <diagram name="Page-1" id="2OeLiak6HviorxBMDYNy">
    <mxGraphModel>
      <root>
        <mxCell id="0" />
        <mxCell id="1" parent="0" />
      </root>
    </mxGraphModel>
  </diagram>
</mxfile>
